<svg width="2643" height="1200" viewBox="0 0 2643 1200" fill="none" xmlns="http://www.w3.org/2000/svg">
<rect y="129" width="941" height="941" rx="123" fill="white"/>
<circle cx="291" cy="420" r="140" fill="black"/>
<circle cx="651" cy="780" r="140" fill="black"/>
<path fill-rule="evenodd" clip-rule="evenodd" d="M259 630C247.954 630 239 638.954 239 650V728L161 728C149.954 728 141 736.954 141 748L141 812C141 823.046 149.954 832 161 832H239V910C239 921.046 247.954 930 259 930H323C334.046 930 343 921.046 343 910V832H421C432.046 832 441 823.046 441 812V748C441 736.954 432.046 728 421 728L343 728V650C343 638.954 334.046 630 323 630H259Z" fill="black"/>
<path d="M667.824 539.972C660.127 553.313 640.873 553.313 633.176 539.972L615.304 508.994C607.612 495.661 617.235 479 632.628 479L668.372 479C683.765 479 693.388 495.661 685.696 508.994L667.824 539.972Z" fill="black"/>
<path d="M531.028 436.824C517.687 429.127 517.687 409.873 531.028 402.176L562.006 384.304C575.339 376.612 592 386.235 592 401.628L592 437.372C592 452.765 575.339 462.388 562.006 454.696L531.028 436.824Z" fill="black"/>
<path d="M770.972 436.824C784.313 429.127 784.313 409.873 770.972 402.176L739.994 384.304C726.661 376.612 710 386.235 710 401.628L710 437.372C710 452.765 726.661 462.388 739.994 454.696L770.972 436.824Z" fill="black"/>
<path d="M633.176 300.028C640.873 286.687 660.127 286.687 667.824 300.028L685.696 331.006C693.388 344.339 683.765 361 668.372 361H632.628C617.235 361 607.612 344.339 615.304 331.006L633.176 300.028Z" fill="black"/>
<path d="M1608.2 321.6V412H1459.4V880H1347.4V412H1198.6V321.6H1608.2ZM2022.72 593.6C2054.19 599.467 2080.05 615.2 2100.32 640.8C2120.59 666.4 2130.72 695.733 2130.72 728.8C2130.72 758.667 2123.25 785.067 2108.32 808C2093.92 830.4 2072.85 848 2045.12 860.8C2017.39 873.6 1984.59 880 1946.72 880H1705.92V321.6H1936.32C1974.19 321.6 2006.72 327.733 2033.92 340C2061.65 352.267 2082.45 369.333 2096.32 391.2C2110.72 413.067 2117.92 437.867 2117.92 465.6C2117.92 498.133 2109.12 525.333 2091.52 547.2C2074.45 569.067 2051.52 584.533 2022.72 593.6ZM1817.92 552H1920.32C1946.99 552 1967.52 546.133 1981.92 534.4C1996.32 522.133 2003.52 504.8 2003.52 482.4C2003.52 460 1996.32 442.667 1981.92 430.4C1967.52 418.133 1946.99 412 1920.32 412H1817.92V552ZM1930.72 788.8C1957.92 788.8 1978.99 782.4 1993.92 769.6C2009.39 756.8 2017.12 738.667 2017.12 715.2C2017.12 691.2 2009.12 672.533 1993.12 659.2C1977.12 645.333 1955.52 638.4 1928.32 638.4H1817.92V788.8H1930.72ZM2615.98 321.6V412H2467.18V880H2355.18V412H2206.38V321.6H2615.98Z" fill="white"/>
</svg>
