<svg width="941" height="941" viewBox="0 0 941 941" fill="none" xmlns="http://www.w3.org/2000/svg">
<rect width="941" height="941" rx="123" fill="black"/>
<circle cx="291" cy="291" r="140" fill="#F8FBFF"/>
<circle cx="651" cy="651" r="140" fill="#F8FBFF"/>
<path fill-rule="evenodd" clip-rule="evenodd" d="M259 501C247.954 501 239 509.954 239 521V599L161 599C149.954 599 141 607.954 141 619L141 683C141 694.046 149.954 703 161 703H239V781C239 792.046 247.954 801 259 801H323C334.046 801 343 792.046 343 781V703H421C432.046 703 441 694.046 441 683V619C441 607.954 432.046 599 421 599L343 599V521C343 509.954 334.046 501 323 501H259Z" fill="#F8FBFF"/>
<path d="M667.824 410.972C660.127 424.313 640.873 424.313 633.176 410.972L615.304 379.994C607.612 366.661 617.235 350 632.628 350L668.372 350C683.765 350 693.388 366.661 685.696 379.994L667.824 410.972Z" fill="#F8FBFF"/>
<path d="M531.028 307.824C517.687 300.127 517.687 280.873 531.028 273.176L562.006 255.304C575.339 247.612 592 257.235 592 272.628L592 308.372C592 323.765 575.339 333.388 562.006 325.696L531.028 307.824Z" fill="#F8FBFF"/>
<path d="M770.972 307.824C784.313 300.127 784.313 280.873 770.972 273.176L739.994 255.304C726.661 247.612 710 257.235 710 272.628L710 308.372C710 323.765 726.661 333.388 739.994 325.696L770.972 307.824Z" fill="#F8FBFF"/>
<path d="M633.176 171.028C640.873 157.687 660.127 157.687 667.824 171.028L685.696 202.006C693.388 215.339 683.765 232 668.372 232H632.628C617.235 232 607.612 215.339 615.304 202.006L633.176 171.028Z" fill="#F8FBFF"/>
</svg>
